<svg xmlns="http://www.w3.org/2000/svg" width="19.996" height="20" viewBox="0 0 19.996 20">
  <path id="search_32x32" d="M19.771,18.908l-4.619-4.615a8.765,8.765,0,0,0,2-4.365A8.647,8.647,0,0,0,.046,7.37a8.689,8.689,0,0,0,7.3,9.791,9.39,9.39,0,0,0,1.248.125A8.534,8.534,0,0,0,13.716,15.6c.187-.125.312-.249.5-.374l4.619,4.615a.6.6,0,0,0,.874,0A.629.629,0,0,0,19.771,18.908Zm-6.742-4.365a7.215,7.215,0,0,1-5.493,1.372A7.463,7.463,0,0,1,1.294,7.557a7.425,7.425,0,0,1,7.3-6.3,6.062,6.062,0,0,1,1.061.062A7.59,7.59,0,0,1,14.528,4.19,7.2,7.2,0,0,1,15.9,9.678,7.191,7.191,0,0,1,13.029,14.542Z" transform="translate(0.045 -0.03)" fill="#fff"/>
</svg>
